<?xml version="1.0" encoding="utf-8"?>
<!-- Generator: Adobe Illustrator 19.0.0, SVG Export Plug-In . SVG Version: 6.00 Build 0)  -->
<svg version="1.1" id="图形" xmlns="http://www.w3.org/2000/svg" xmlns:xlink="http://www.w3.org/1999/xlink" x="0px" y="0px"
	 viewBox="476 169.9 500 500" style="enable-background:new 476 169.9 500 500;" xml:space="preserve">
<style type="text/css">
	.st0{fill:#F04043;}
</style>
<path class="st0" d="M726,194.9c-124.3,0-225,100.7-225,225c0,124.2,100.7,225,225,225c124.2,0,225-100.8,225-225
	C951,295.6,850.3,194.9,726,194.9z M726,605.8c-102.7,0-185.9-83.2-185.9-185.9S623.3,234,726,234s185.9,83.2,185.9,185.9
	C911.9,522.6,828.7,605.8,726,605.8z M714.2,354.8l37.4,43.2c-29.7,0-118.4,0.2-118.4,0.2v43.1c0,0,88.8-0.2,118.4-0.2l-37.4,36.1
	l28.7,27.5l80.1-84.7L743,328.1L714.2,354.8z"/>
</svg>
