<?xml version="1.0" encoding="utf-8"?>
<!-- Generator: Adobe Illustrator 19.0.0, SVG Export Plug-In . SVG Version: 6.00 Build 0)  -->
<svg version="1.1" id="图形" xmlns="http://www.w3.org/2000/svg" xmlns:xlink="http://www.w3.org/1999/xlink" x="0px" y="0px"
	 viewBox="476 169.9 500 500" style="enable-background:new 476 169.9 500 500;" xml:space="preserve">
<style type="text/css">
	.st0{fill:#F03E41;}
</style>
<path class="st0" d="M726,193.9c-124.3,0-225,100.7-225,225c0,124.3,100.7,225,225,225c124.3,0,225-100.7,225-225
	C951,294.6,850.3,193.9,726,193.9L726,193.9z M707.1,313.2c0-10,8-18.2,17.9-18.2c9.9,0,17.9,8.2,17.9,18.2v137.3
	c0,10.1-8,18.2-17.9,18.2c-9.9,0-17.9-8.2-17.9-18.2V313.2L707.1,313.2z M725,543.3c-14.1,0-25.5-11.6-25.5-25.9
	c0-14.3,11.4-25.9,25.5-25.9c14.1,0,25.5,11.6,25.5,25.9C750.5,531.7,739.1,543.3,725,543.3z"/>
</svg>
