<?xml version="1.0" encoding="utf-8"?>
<!-- Generator: Adobe Illustrator 16.0.0, SVG Export Plug-In . SVG Version: 6.00 Build 0)  -->
<!DOCTYPE svg PUBLIC "-//W3C//DTD SVG 1.1//EN" "http://www.w3.org/Graphics/SVG/1.1/DTD/svg11.dtd">
<svg version="1.1" id="图形" xmlns="http://www.w3.org/2000/svg" xmlns:xlink="http://www.w3.org/1999/xlink" x="0px" y="0px"
	 width="24px" height="24px" viewBox="0 1000 24 24" enable-background="new 0 1000 24 24" xml:space="preserve">
<path fill="#FFFFFF" d="M7.495,1001c0,0,0.907,1.48,1.077,3.145c-4.085,1.316-7.018,4.918-7.018,9.159
	c0,5.354,4.678,9.696,10.447,9.696s10.445-4.342,10.445-9.696c0-5.014-4.096-9.136-9.35-9.644
	C11.123,1002.154,7.495,1001,7.495,1001L7.495,1001L7.495,1001z M13.021,1013.936c-0.71,0-1.325,0.033-1.96,0.043
	c0.635-1.538,0.2-3.402-0.629-3.907c0.749-0.264,1.119-0.442,1.936-0.669C13.559,1010.444,13.54,1013.034,13.021,1013.936z
	 M18.51,1013.287c-0.714,0-1.18,0.042-1.96,0.042c0.857-1.658,0.332-3.32-0.634-3.907c0.736-0.311,1.122-0.441,1.937-0.669
	C19.149,1009.861,19.027,1012.386,18.51,1013.287L18.51,1013.287z"/>
</svg>
