<?xml version="1.0" encoding="utf-8"?>
<!-- Generator: Adobe Illustrator 19.0.0, SVG Export Plug-In . SVG Version: 6.00 Build 0)  -->
<svg version="1.1" id="图形" xmlns="http://www.w3.org/2000/svg" xmlns:xlink="http://www.w3.org/1999/xlink" x="0px" y="0px"
	 viewBox="214 -92.1 1024 1024" style="enable-background:new 214 -92.1 1024 1024;" xml:space="preserve">
<style type="text/css">
	.st0{fill:#C3C3C3;}
</style>
<path class="st0" d="M1012.5,921.3H439.5c-79.1,0-143.3-64.1-143.3-143.3V324.4h95.5v-71.6C391.7,68.1,541.4-81.5,726-81.5
	s334.3,149.7,334.3,334.3v71.6h95.5V778C1155.8,857.2,1091.6,921.3,1012.5,921.3z M391.7,706.4c0,65.9,53.4,119.4,119.4,119.4h429.8
	c65.9,0,119.4-53.4,119.4-119.4V419.9H391.7V706.4z M964.8,273.3C964.8,130.1,872.5,14,729.3,14C595.6,14,487.2,122.4,487.2,256
	v68.3h477.5L964.8,273.3L964.8,273.3z M737.9,730.3h-23.9c-19.8,0-35.8-16-35.8-35.8V551.2c0-19.8,16-35.8,35.8-35.8h23.9
	c19.8,0,35.8,16,35.8,35.8v143.3C773.8,714.3,757.7,730.3,737.9,730.3z"/>
</svg>
