<?xml version="1.0" encoding="utf-8"?>
<!-- Generator: Adobe Illustrator 16.0.0, SVG Export Plug-In . SVG Version: 6.00 Build 0)  -->
<!DOCTYPE svg PUBLIC "-//W3C//DTD SVG 1.1//EN" "http://www.w3.org/Graphics/SVG/1.1/DTD/svg11.dtd">
<svg version="1.1" id="图形" xmlns="http://www.w3.org/2000/svg" xmlns:xlink="http://www.w3.org/1999/xlink" x="0px" y="0px"
	 width="24px" height="24px" viewBox="0 1000 24 24" enable-background="new 0 1000 24 24" xml:space="preserve">
<path fill="#FFFFFF" d="M16.703,1011.289c-0.064-0.021-0.135-0.039-0.201-0.059c0.994-1.086,1.603-2.533,1.603-4.125
	c0-3.371-2.731-6.105-6.104-6.105c-3.371,0-6.105,2.734-6.105,6.105c0,1.587,0.609,3.039,1.605,4.125
	c-0.07,0.02-0.136,0.037-0.203,0.059c-4.6,2.299-3.785,7.855-3.785,7.855c1.127,1.104,2.266,1.891,3.337,2.455l0.026-0.107
	c0,0,0.183-2.318,1.213-4.045c0,0,0.183,4.264,0.662,4.928c0.013,0.016,0.021,0.029,0.03,0.047c1.038,0.344,1.939,0.49,2.609,0.545
	l-0.005,0.01c0,0,0.222,0.027,0.616,0.023c0.393,0.004,0.614-0.023,0.614-0.023v-0.01c0.753-0.063,1.803-0.238,3.006-0.686
	c0.441-0.885,0.61-4.836,0.61-4.836c0.946,1.584,1.179,3.668,1.212,3.998c0.985-0.553,2.021-1.295,3.046-2.299
	C20.487,1019.145,21.302,1013.588,16.703,1011.289z M11.925,1016.367l-2.86-3.908c0.87,0.479,1.873,0.75,2.936,0.75
	c0.896,0,1.747-0.195,2.515-0.541L11.925,1016.367z"/>
</svg>
