<?xml version="1.0" encoding="utf-8"?>
<!-- Generator: Adobe Illustrator 19.0.0, SVG Export Plug-In . SVG Version: 6.00 Build 0)  -->
<svg version="1.1" id="图形" xmlns="http://www.w3.org/2000/svg" xmlns:xlink="http://www.w3.org/1999/xlink" x="0px" y="0px"
	 viewBox="701 394.9 50 50" style="enable-background:new 701 394.9 50 50;" xml:space="preserve">
<style type="text/css">
	.st0{fill:#C3C3C3;}
</style>
<path class="st0" d="M736.5,395.9h-21.1c-3.2,0-5.8,2.6-5.8,5.8v36.4c0,3.2,2.6,5.8,5.8,5.8h21.1c3.2,0,5.8-2.6,5.8-5.8v-36.4
	C742.4,398.5,739.8,395.9,736.5,395.9L736.5,395.9z M719.7,399.5h12.6v2.9h-12.6V399.5z M726,440.3c-2,0-3.6-1.6-3.6-3.6
	c0-2,1.6-3.6,3.6-3.6c2,0,3.6,1.6,3.6,3.6C729.6,438.6,728,440.3,726,440.3z M737.5,431.2h-22.9v-26.5h22.9V431.2L737.5,431.2z"/>
</svg>
