<?xml version="1.0" encoding="utf-8"?>
<!-- Generator: Adobe Illustrator 19.0.0, SVG Export Plug-In . SVG Version: 6.00 Build 0)  -->
<svg version="1.1" id="图形" xmlns="http://www.w3.org/2000/svg" xmlns:xlink="http://www.w3.org/1999/xlink" x="0px" y="0px"
	 viewBox="214 -92.1 1024 1024" style="enable-background:new 214 -92.1 1024 1024;" xml:space="preserve">
<style type="text/css">
	.st0{fill:#C3C3C3;}
</style>
<path class="st0" d="M858.8,469.8c70.2-48,116.4-129.3,116.4-221.7c0-149.7-122-271.6-271.6-271.6c-149.7,0-269.8,122-269.8,269.8
	c0,92.4,46.2,173.7,116.4,221.7c-158.9,62.8-269.8,216.2-269.8,395.4l0,0h75.8l0,0c0-177.4,134.9-325.2,306.7-345.5
	c1.8,0,48-3.7,86.8,0h3.7l0,0C921.6,541.8,1051,686,1051,861.5l0,0h77.6l0,0C1126.7,684.1,1015.9,530.8,858.8,469.8L858.8,469.8z
	 M703.6,449.5c-112.7,0-203.3-90.5-203.3-203.3c0-112.7,90.5-203.3,203.3-203.3c112.7,0,203.3,90.5,203.3,203.3
	C906.8,358.9,816.3,449.5,703.6,449.5L703.6,449.5z M901.8,469.8c70.2-48,116.4-129.3,116.4-221.7c0-149.7-122-271.6-271.6-271.6
	c-149.7,0-269.8,122-269.8,269.8c0,92.4,46.2,173.7,116.4,221.7c-158.9,62.8-269.8,216.2-269.8,395.4l0,0h75.8l0,0
	c0-177.4,134.9-325.2,306.7-345.5c1.8,0,48-3.7,86.8,0h3.7l0,0C964.6,541.8,1094,686,1094,861.5l0,0h77.6l0,0
	C1169.7,684.1,1058.8,530.8,901.8,469.8L901.8,469.8z M746.6,449.5c-112.7,0-203.3-90.5-203.3-203.3c0-112.7,90.5-203.3,203.3-203.3
	c112.7,0,203.3,90.5,203.3,203.3C949.8,358.9,859.3,449.5,746.6,449.5L746.6,449.5z M594.4-0.5c0,0,55.5-29,130.7-22.2
	c0,0,65.2-7.6,131,22.2C856-0.5,728.7-63.3,594.4-0.5z M571.9,350.5c0,0,47.8,87.8,153.2,97.8c0,0,93.7-2.6,153.2-97.8
	C878.3,350.5,743.5,544.3,571.9,350.5z M878.3,141.8c0,0-47.8-87.8-153.2-97.8c0,0-93.7,2.6-153.2,97.8
	C571.9,141.8,706.7-52,878.3,141.8z"/>
</svg>
